<?xml version="1.0" encoding="utf-8"?>
<!-- Generator: Adobe Illustrator 17.0.0, SVG Export Plug-In . SVG Version: 6.00 Build 0)  -->
<!DOCTYPE svg PUBLIC "-//W3C//DTD SVG 1.1//EN" "http://www.w3.org/Graphics/SVG/1.1/DTD/svg11.dtd">
<svg version="1.1" id="Layer_1" xmlns="http://www.w3.org/2000/svg" xmlns:xlink="http://www.w3.org/1999/xlink" x="0px" y="0px"
	 width="972.748px" height="448px" viewBox="0 0 972.748 448" enable-background="new 0 0 972.748 448" xml:space="preserve">
<path fill-rule="evenodd" clip-rule="evenodd" fill="#17842E" d="M-3409.221-306.297c3.231,8.346,3.673,8.396,3.673,17.411v86.159
	h4.867v-86.42c0-8.441-0.147-9.192,2.528-17.149c3.228,8.346,3.017,8.396,3.017,17.411l1.305,86.159v10.941
	c0,6.38-5.909,10.212-10.924,13.287c-15.411,9.401,15.876,201.205,9.085,244.276c-5.9,37.422-32.319,37.319-38.207,0
	c-6.793-43.071,24.508-234.868,9.091-244.276c-5.025-3.075-10.925-6.907-10.925-13.287v-10.941l1.298-86.42
	c0-8.441-0.139-9.192,2.535-17.149c3.227,8.346,3.016,8.396,3.016,17.411v86.159h4.87v-86.42c0-8.441,0.51-9.192,3.177-17.149
	c3.233,8.346,3.672,8.396,3.672,17.411l0.002,86.159h4.741v-86.42C-3412.399-297.589-3411.89-298.34-3409.221-306.297z"/>
<g>
	<g>
		<g>
			<path fill="#A0642F" d="M42.519,108.785h65.83v22.622H67.404v44.113h32.123v22.622H67.404v68.998H42.519V108.785z"/>
			<path fill="#A0642F" d="M128.255,258.997c-6.485-6.937-9.727-16.741-9.727-29.409v-83.251c0-12.668,3.242-22.47,9.727-29.409
				c6.483-6.935,15.836-10.406,28.053-10.406c12.215,0,21.564,3.471,28.051,10.406c6.483,6.939,9.728,16.741,9.728,29.409v83.251
				c0,12.668-3.245,22.472-9.728,29.409c-6.487,6.938-15.836,10.406-28.051,10.406C144.091,269.403,134.739,265.936,128.255,258.997
				z M169.202,231.172v-86.418c0-10.406-4.298-15.609-12.894-15.609s-12.896,5.204-12.896,15.609v86.418
				c0,10.406,4.3,15.608,12.896,15.608S169.202,241.578,169.202,231.172z"/>
			<path fill="#A0642F" d="M210.825,108.785h36.874c12.817,0,22.169,2.98,28.051,8.936c5.882,5.959,8.824,15.121,8.824,27.486v9.728
				c0,16.44-5.43,26.845-16.289,31.218v0.452c6.03,1.81,10.294,5.507,12.782,11.085c2.488,5.58,3.733,13.046,3.733,22.395v27.825
				c0,4.525,0.148,8.184,0.452,10.973c0.302,2.792,1.055,5.542,2.263,8.257h-25.337c-0.905-2.563-1.51-4.977-1.81-7.238
				c-0.305-2.263-0.453-6.335-0.453-12.217V218.73c0-7.24-1.17-12.291-3.505-15.157c-2.34-2.864-6.373-4.298-12.103-4.298h-8.596
				v93.179l-24.885,16.876V108.785z M244.757,176.652c4.977,0,8.71-1.28,11.198-3.846c2.489-2.563,3.733-6.861,3.733-12.895v-12.216
				c0-5.729-1.018-9.876-3.054-12.442c-2.037-2.563-5.242-3.846-9.615-3.846h-11.31v45.244H244.757z"/>
			<path fill="#A0642F" d="M301.991,108.785h35.516l15.836,113.338h0.453l15.834-113.338h35.516V267.14h-23.525V147.243h-0.453
				L363.072,267.14h-20.813l-18.099-119.898h-0.452V267.14h-21.718V108.785z"/>
			<path fill="#A0642F" d="M442.927,108.785h33.707l25.788,158.355h-24.883l-4.524-31.444v0.452h-28.278l-4.524,30.993h-23.076
				L442.927,108.785z M470.073,214.657l-11.085-78.274h-0.453l-10.859,78.274H470.073z"/>
			<path fill="#A0642F" d="M514.41,108.785h31.218l24.206,94.788h0.452v-94.788h22.171V267.14h-25.564l-29.86-115.6h-0.453v140.913
				l-22.169,75.941V108.785z"/>
			<path fill="#A0642F" d="M611.003,108.785h38.005c12.365,0,21.64,3.319,27.825,9.954c6.182,6.638,9.275,16.366,9.275,29.182
				v80.083c0,12.82-3.093,22.548-9.275,29.181c-6.185,6.638-15.46,9.954-27.825,9.954h-38.005V108.785z M648.557,244.518
				c4.071,0,7.2-1.205,9.387-3.619c2.185-2.411,3.281-6.333,3.281-11.764V146.79c0-5.429-1.096-9.349-3.281-11.764
				c-2.187-2.41-5.317-3.619-9.387-3.619h-12.668v113.11H648.557z"/>
			<path fill="#A0642F" d="M710.765,258.997c-6.485-6.937-9.727-16.741-9.727-29.409v-83.251c0-12.668,3.242-22.47,9.727-29.409
				c6.483-6.935,15.836-10.406,28.053-10.406c12.215,0,21.564,3.471,28.051,10.406c6.483,6.939,9.728,16.741,9.728,29.409v83.251
				c0,12.668-3.245,22.472-9.728,29.409c-6.487,6.938-15.836,10.406-28.051,10.406C726.6,269.403,717.248,265.936,710.765,258.997z
				 M751.711,231.172v-86.418c0-10.406-4.298-15.609-12.894-15.609c-8.596,0-12.896,5.204-12.896,15.609v86.418
				c0,10.406,4.3,15.608,12.896,15.608C747.413,246.781,751.711,241.578,751.711,231.172z"/>
		</g>
		<g>
			<path fill="#C2000B" d="M150.898,395.442c-4.654-5.046-6.979-12.166-6.979-21.36v-63.241c0-9.193,2.325-16.315,6.979-21.362
				c4.652-5.045,11.409-7.568,20.267-7.568c8.856,0,15.613,2.523,20.267,7.568c4.652,5.046,6.981,12.169,6.981,21.362v12.446
				h-17.492v-13.624c0-7.288-3.085-10.931-9.252-10.931c-6.167,0-9.25,3.644-9.25,10.931v65.764c0,7.177,3.083,10.765,9.25,10.765
				c6.167,0,9.252-3.588,9.252-10.765V357.43h17.492v16.652c0,9.194-2.329,16.314-6.981,21.36
				c-4.654,5.046-11.411,7.569-20.267,7.569C162.307,403.011,155.55,400.488,150.898,395.442z"/>
			<path fill="#C2000B" d="M215.736,395.274c-4.822-5.157-7.232-12.446-7.232-21.866v-61.895c0-9.418,2.409-16.706,7.232-21.866
				c4.82-5.155,11.773-7.736,20.857-7.736c9.082,0,16.034,2.581,20.856,7.736c4.819,5.16,7.232,12.447,7.232,21.866v61.895
				c0,9.42-2.413,16.709-7.232,21.866c-4.822,5.158-11.773,7.737-20.856,7.737C227.509,403.011,220.556,400.432,215.736,395.274z
				 M246.18,374.586v-64.25c0-7.737-3.196-11.605-9.587-11.605c-6.393,0-9.588,3.868-9.588,11.605v64.25
				c0,7.736,3.196,11.605,9.588,11.605C242.984,386.192,246.18,382.322,246.18,374.586z"/>
			<path fill="#C2000B" d="M273.425,384.845l34.312-84.433h-32.629v-16.82h52.476v16.484l-34.312,84.433h34.312v16.82h-54.159
				V384.845z"/>
			<path fill="#C2000B" d="M338.011,283.592h18.502v117.736h-18.502V283.592z"/>
			<path fill="#C2000B" d="M370.302,283.592h23.211l17.998,70.474h0.336v-70.474h16.482v117.736h-19.005l-22.202-85.948h-0.336
				v85.948h-16.484V283.592z"/>
			<path fill="#C2000B" d="M442.118,283.592h18.502v47.936h19.847v-47.936h18.501v117.736h-18.501v-52.981H460.62v52.981h-18.502
				V283.592z"/>
			<path fill="#C2000B" d="M527.055,283.592h25.061l19.173,117.736h-18.501l-3.364-23.379v0.336h-21.024l-3.364,23.043h-17.156
				L527.055,283.592z M547.238,362.308l-8.242-58.197h-0.336l-8.074,58.197H547.238z"/>
			<path fill="#C2000B" d="M580.202,283.592h23.211l17.998,70.474h0.336v-70.474h16.482v117.736h-19.005l-22.202-85.948h-0.336
				v85.948h-16.484V283.592z"/>
			<path fill="#C2000B" d="M652.018,283.592h28.257c9.193,0,16.09,2.469,20.688,7.401c4.596,4.936,6.897,12.167,6.897,21.696v59.541
				c0,9.532-2.301,16.764-6.897,21.696c-4.598,4.936-11.495,7.401-20.688,7.401h-28.257V283.592z M679.938,384.509
				c3.027,0,5.353-0.897,6.979-2.691c1.625-1.791,2.439-4.708,2.439-8.746v-61.222c0-4.036-0.814-6.951-2.439-8.746
				c-1.627-1.793-3.952-2.691-6.979-2.691h-9.418v84.097H679.938z"/>
			<path fill="#C2000B" d="M726.19,395.274c-4.822-5.157-7.232-12.446-7.232-21.866v-61.895c0-9.418,2.409-16.706,7.232-21.866
				c4.82-5.155,11.773-7.736,20.857-7.736c9.082,0,16.034,2.581,20.856,7.736c4.819,5.16,7.232,12.447,7.232,21.866v61.895
				c0,9.42-2.413,16.709-7.232,21.866c-4.822,5.158-11.773,7.737-20.856,7.737C737.964,403.011,731.011,400.432,726.19,395.274z
				 M756.634,374.586v-64.25c0-7.737-3.195-11.605-9.587-11.605c-6.393,0-9.588,3.868-9.588,11.605v64.25
				c0,7.736,3.195,11.605,9.588,11.605C753.438,386.192,756.634,382.322,756.634,374.586z"/>
		</g>
		<g>
			<path fill="#C2000B" d="M76.741,362.949v-78.255h40.195v13.008H91.223v18.09h23.934v12.399H91.223v21.545h26.323v13.212H76.741z"
				/>
		</g>
	</g>
	<g>
		<g>
			<g>
				<path fill="#A0642F" d="M859.002,391.106l-5.612-202.268h-10.87l-6.19,202.326c-0.154,6.368,4.967,11.613,11.337,11.613
					C854.059,402.777,859.188,397.496,859.002,391.106z M847.84,391.658c-3.716,0-6.729-3.013-6.729-6.729
					c0-3.716,3.013-6.729,6.729-6.729c3.716,0,6.729,3.013,6.729,6.729C854.569,388.645,851.557,391.658,847.84,391.658z"/>
			</g>
		</g>
		<g>
			<path fill="#A0642F" d="M859.002,391.499l-1.299-42.036l-19.947,0.268l-1.426,41.823c-0.154,6.013,4.967,10.965,11.337,10.965
				l0,0C854.059,402.519,859.188,397.532,859.002,391.499z M847.841,391.658c-3.716,0-6.729-3.013-6.729-6.729
				c0-3.716,3.013-6.729,6.729-6.729c3.716,0,6.729,3.013,6.729,6.729C854.569,388.645,851.557,391.658,847.841,391.658z"/>
		</g>
		<ellipse fill="#A0642F" cx="847.667" cy="159.546" rx="37.705" ry="52.606"/>
		<g>
			<path fill="#A0642F" d="M850.824,208.313c-10.866,1.401-17.892-3.742-21.926-8.431c-4.45-5.171-6.181-10.793-6.252-11.03
				c-0.413-1.368,0.361-2.812,1.729-3.226c1.369-0.414,2.809,0.359,3.224,1.724l0,0c0.236,0.771,5.981,18.848,23.841,15.631
				c1.415-0.255,2.752,0.682,3.006,2.088c0.253,1.407-0.682,2.752-2.089,3.006C851.837,208.17,851.326,208.248,850.824,208.313z"/>
		</g>
		<ellipse fill="#A0642F" cx="847.667" cy="159.546" rx="24.093" ry="38.243"/>
		<g>
			<polygon fill="#F4F4F4" points="881.738,163.373 864.277,162.96 829.106,159.668 814.636,151.875 816.515,135.606 
				803.692,132.73 798.965,122.973 789.085,117.124 786.651,103.689 789.274,99.374 793.151,89.224 791.635,82.802 797.303,68.39 
				809.614,59.164 824.808,57.261 839.407,49.398 852.245,46.007 860.82,46.007 871.47,52.603 883.58,63.04 898.753,66.696 
				906.427,71.993 915.15,81.849 915.908,94.901 925.315,103.205 928.518,112.156 924.398,130.139 905.677,143.316 884.528,145.695 
				883.985,157.501 			"/>
			<path fill="#A0642F" d="M814.832,132.195c2.636-1.473,3.282,1.77,0.649,3.241c-10.313,5.764-20.141-4.09-18.415-11.899
				c-11.096-0.142-19.918-20.997-5.127-31.569c-9.82-21.525,18.824-42.942,34.716-34.552c18.019-21.539,51.321-12.197,58.971,6.164
				c20.227-8.84,38.645,21.221,32.649,32.576c16.298,4.529,14.264,25.547,3.852,38.561c-6.676,8.342-17.224,12.967-27.188,9.262
				c-1.886,3.653-7.013,4.84-10.08,4.146c-2.486-0.562-1.92-4.53-0.273-4.311c2.554,0.34,4.403,0.87,7.159-2.902
				c0.589-1.182,0.416-2.801,2.236-1.861c9.341,4.818,19.389,1.172,25.949-8.321c8.24-11.919,9.048-28.664-5.488-31.928
				c-2.64-0.593,3.45-2.059-0.436-13.258c-4.038-11.637-17.688-25.701-29.236-18.935c-4.877,2.857-0.873-3.773-12.518-12.018
				c-13.298-9.415-33.747-9.749-43.789,5.111c-0.826,1.221-2.882,1.977-3.687,1.395c-13.874-10.025-38.28,10.73-28.391,29.606
				c1.096,2.091-6.809,2.764-7.961,12.356c-1.114,9.276,5.44,19.048,10.87,17.882c4.1-0.881-1.86,4.053,5.552,10.581
				C807.355,133.731,811.799,133.89,814.832,132.195z"/>
			<path fill="#A0642F" d="M895.504,112.16c-9.201-10.338-22.752-17.178-37.154-19.305c-13.877-2.049-28.544,0.274-40.882,8.071
				c-0.784,0.484-1.325,1.159-1.296,1.696c0.683,12.74-2.021,37.095-5.715,49.041c-0.132,0.379-0.049,0.709,0.281,0.895
				c10.808,6.027,22.338,9.739,34.464,11.527c0.929,0.137,1.863,0.264,2.802,0.379c11.27,1.378,23.039,1.145,35.212-0.391
				c1.408-0.146,3.615-1.231,3.579-2.188c-0.487-13.2,0.023-37.01,8.43-48.36C895.663,113.014,895.794,112.488,895.504,112.16z
				 M883.861,134.565c-1.748,8.987-2.095,18.758-1.905,26.907c-11.371,1.246-22.591,1.31-33.487-0.239
				c-11.705-1.663-23.035-5.187-33.781-11.103c3.641-13.729,6.213-31.91,5.612-46.082c10.945-6.542,24.565-9.049,37.545-7.703
				c13.205,1.37,25.749,6.728,34.134,15.896C888.45,117.286,885.229,127.549,883.861,134.565z"/>
			<path fill="#A0642F" d="M821.565,99.677c-0.01-0.242,0.31-0.564,0.713-0.718c0.403-0.153,0.739-0.082,0.748,0.16
				c0.211,5.856,0.245,11.697-0.064,17.549c-0.31,5.857-0.962,11.721-2.118,17.614c-0.051,0.264-0.419,0.571-0.819,0.686
				c-0.401,0.116-0.683-0.004-0.632-0.267c1.152-5.867,1.8-11.701,2.108-17.525C821.809,111.347,821.775,105.521,821.565,99.677z"/>
			<path fill="#A0642F" d="M890.474,110.126c0.44-0.695,1.696-0.489,1.267,0.184c-4.073,6.416-8.12,16.748-9.519,24.568
				c-0.111,0.631-1.224,1.181-1.116,0.567C882.532,127.484,886.324,116.663,890.474,110.126z"/>
			<path fill="#A0642F" d="M793.934,91.213c-0.2-0.255,0.075-0.722,0.615-1.043c0.54-0.32,1.14-0.373,1.34-0.117
				c2.708,3.457,5.999,6.305,9.929,8.218c3.554,1.731,7.627,2.693,12.256,2.642c0.498-0.005,0.666,0.324,0.375,0.733
				c-0.29,0.41-0.93,0.748-1.428,0.753c-4.9,0.053-9.187-0.953-12.908-2.766C800.081,97.671,796.706,94.753,793.934,91.213z"/>
			<path fill="#A0642F" d="M799.013,122.537c-1.359,0.413-1.169-0.925,0.216-1.344c16.01-4.847,16.483-13.323,19.113-13.623
				c2.765-0.316-4.195,6.95-7.168,9.092C807.212,119.517,802.753,121.408,799.013,122.537z"/>
			<path fill="#A0642F" d="M825.591,59.25c0.214-0.916,3.09-1.563,2.883-0.672c-1.521,6.529-3.208,30.029,4.816,36.248
				c0.642,0.498-0.552,1.296-1.199,0.794C823.77,89.171,824.016,66.014,825.591,59.25z"/>
			<path fill="#A0642F" d="M881.913,65.367c0.079-0.841,2.528-1.159,2.45-0.338c-0.672,7.127-5.332,26.641-15.152,32.448
				c-1.334,0.79-2.003,0.294-0.714-0.536C876.998,91.474,881.326,71.676,881.913,65.367z"/>
			<path fill="#A0642F" d="M915.066,95.576c0.529-0.986,2.135,0.366,1.624,1.313c-3.674,6.829-14.035,14.071-23.923,14.301
				c-1.18,0.027-1.22-0.771-0.002-0.8C901.514,110.186,911.848,101.543,915.066,95.576z"/>
			<path fill="#A0642F" d="M887.488,125.879c-0.033-0.831,1.122-2.261,1.156-1.444c0.233,5.755,2.929,10.672,6.338,15.612
				c0.434,0.63-1.722,1.826-2.162,1.192C889.332,136.182,887.728,131.776,887.488,125.879z"/>
			<path fill="#A0642F" d="M897.772,70.016c-0.309-0.183-0.167-0.629,0.32-0.997c0.486-0.367,1.133-0.516,1.444-0.334l0.326,0.191
				l0.031,0.019c5.246,3.141,9.628,8.892,12.082,14.923c2.394,5.881,3.075,12.089,0.851,16.467c2.507,0.144,4.446,0.786,6.093,1.831
				c1.939,1.23,3.309,2.995,4.179,5.078c0.866,2.071,1.245,4.459,1.203,6.95c-0.078,4.679-1.633,9.75-4.201,13.798
				c-2.971,4.68-6.139,8.73-10.916,10.712c-4.639,1.922-10.546,1.69-18.869-2.203c-0.339-0.16-0.236-0.597,0.23-0.975
				c0.468-0.379,1.123-0.556,1.462-0.396c7.819,3.657,13.093,3.988,17.009,2.365c3.776-1.566,6.541-5.177,9.216-9.393
				c2.432-3.831,3.906-8.663,3.981-13.15c0.038-2.403-0.323-4.7-1.153-6.683c-0.824-1.971-2.113-3.637-3.924-4.785
				c-4.294-2.726-7.19-0.518-6.225-2.259c2.33-4.079,1.415-10.455-0.979-16.336c-2.408-5.917-6.69-11.551-11.807-14.615
				l-0.027-0.015L897.772,70.016z"/>
			<path fill="#A0642F" d="M805.627,97.159c-0.15-0.094-0.071-0.319,0.174-0.501c0.245-0.182,0.567-0.252,0.717-0.157
				c1.877,1.187,3.951,1.974,6.181,2.463c2.23,0.488,4.624,0.682,7.141,0.682c0.247,0,0.327,0.166,0.179,0.371
				c-0.148,0.204-0.469,0.372-0.716,0.372c-2.577-0.001-5.033-0.199-7.327-0.702C809.684,99.186,807.553,98.377,805.627,97.159z"/>
			<path fill="#A0642F" d="M894.104,113.306c-0.628,0.068-1.054-0.764-0.413-0.833c7.549-0.813,11.834-2.762,17.698-7.788
				c0.54-0.463,1.226,0.179,0.693,0.636C905.955,110.574,900.437,112.899,894.104,113.306z"/>
		</g>
	</g>
</g>
</svg>
