<?xml version="1.0" encoding="utf-8"?>
<!-- Generator: Adobe Illustrator 17.0.0, SVG Export Plug-In . SVG Version: 6.00 Build 0)  -->
<!DOCTYPE svg PUBLIC "-//W3C//DTD SVG 1.1//EN" "http://www.w3.org/Graphics/SVG/1.1/DTD/svg11.dtd">
<svg version="1.1" id="Layer_1" xmlns="http://www.w3.org/2000/svg" xmlns:xlink="http://www.w3.org/1999/xlink" x="0px" y="0px"
	 width="192px" height="108px" viewBox="0 0 192 108" enable-background="new 0 0 192 108" xml:space="preserve">
<g>
	<g>
		<polygon fill="#FFFFFF" points="48.877,63.586 143.123,63.586 143.123,7.638 48.877,7.638 		"/>
		<polygon fill="#E11712" points="48.877,13.855 143.123,13.855 143.123,7.638 48.877,7.638 		"/>
		<polygon fill="#E11712" points="48.877,38.721 143.123,38.721 143.123,32.504 48.877,32.504 		"/>
		<polygon fill="#E11712" points="48.877,63.586 143.123,63.586 143.123,57.37 48.877,57.37 		"/>
		<polygon fill="#12110D" points="48.877,26.288 143.123,26.288 143.123,20.071 48.877,20.071 		"/>
		<polygon fill="#12110D" points="48.877,51.153 143.123,51.153 143.123,44.937 48.877,44.937 		"/>
		<polygon fill="#2F267D" points="48.877,35.612 80.292,35.612 80.292,7.638 48.877,7.638 		"/>
		<polygon fill="#FFFFFF" points="68.864,22.864 75.788,18.383 67.229,18.383 64.583,11.135 61.939,18.383 53.38,18.383 
			60.305,22.864 57.659,30.112 64.583,25.632 71.508,30.112 		"/>
	</g>
	<g>
		<path d="M53.794,78.985v-1.161l4.195-0.007v3.675c-0.645,0.513-1.309,0.9-1.992,1.158c-0.684,0.258-1.387,0.389-2.107,0.389
			c-0.973,0-1.857-0.208-2.651-0.624c-0.795-0.417-1.395-1.019-1.8-1.807c-0.405-0.788-0.609-1.668-0.609-2.642
			c0-0.963,0.201-1.863,0.604-2.698c0.403-0.835,0.983-1.456,1.74-1.861s1.628-0.609,2.614-0.609c0.716,0,1.363,0.116,1.943,0.347
			c0.579,0.231,1.032,0.555,1.361,0.969c0.329,0.415,0.579,0.955,0.75,1.621l-1.181,0.324c-0.149-0.505-0.333-0.901-0.554-1.189
			c-0.22-0.288-0.535-0.519-0.946-0.693c-0.409-0.173-0.865-0.259-1.364-0.259c-0.599,0-1.117,0.091-1.553,0.273
			c-0.437,0.183-0.789,0.423-1.057,0.719c-0.268,0.298-0.476,0.623-0.624,0.98c-0.252,0.612-0.378,1.276-0.378,1.992
			c0,0.883,0.152,1.621,0.456,2.216c0.303,0.594,0.747,1.036,1.328,1.325c0.58,0.288,1.198,0.432,1.851,0.432
			c0.567,0,1.122-0.109,1.662-0.328c0.541-0.218,0.95-0.451,1.229-0.698v-1.844h-2.913L53.794,78.985L53.794,78.985z"/>
		<path d="M59.522,78.045c0-1.643,0.441-2.931,1.323-3.86c0.883-0.93,2.022-1.395,3.418-1.395c0.914,0,1.738,0.218,2.472,0.655
			c0.733,0.437,1.294,1.047,1.679,1.827c0.385,0.782,0.578,1.667,0.578,2.658c0,1.005-0.203,1.903-0.609,2.694
			c-0.405,0.793-0.979,1.392-1.723,1.801c-0.742,0.407-1.545,0.611-2.405,0.611c-0.932,0-1.766-0.225-2.5-0.675
			c-0.733-0.45-1.29-1.064-1.668-1.844C59.712,79.738,59.522,78.915,59.522,78.045 M60.873,78.065c0,1.194,0.321,2.134,0.962,2.821
			c0.642,0.686,1.446,1.03,2.414,1.03c0.986,0,1.798-0.346,2.436-1.04c0.637-0.694,0.956-1.677,0.956-2.951
			c0-0.806-0.137-1.51-0.408-2.111s-0.671-1.067-1.196-1.399c-0.524-0.331-1.113-0.497-1.767-0.497
			c-0.928,0-1.725,0.319-2.395,0.956S60.873,76.575,60.873,78.065"/>
		<path d="M73.512,82.869l-3.836-9.903h1.418l2.574,7.194c0.208,0.577,0.381,1.117,0.521,1.621c0.153-0.54,0.331-1.081,0.534-1.621
			l2.675-7.194h1.338l-3.878,9.903H73.512z"/>
		<polygon points="79.935,82.869 79.935,72.966 87.096,72.966 87.096,74.134 81.246,74.134 81.246,77.167 86.724,77.167 
			86.724,78.329 81.246,78.329 81.246,81.701 87.325,81.701 87.325,82.869 		"/>
		<path d="M89.156,82.869v-9.903h4.391c0.883,0,1.553,0.09,2.013,0.267c0.46,0.178,0.826,0.492,1.101,0.943
			c0.275,0.45,0.413,0.948,0.413,1.493c0,0.703-0.228,1.295-0.682,1.777c-0.455,0.482-1.157,0.788-2.107,0.918
			c0.346,0.167,0.61,0.331,0.79,0.493c0.383,0.351,0.744,0.79,1.087,1.317l1.723,2.695h-1.649l-1.31-2.06
			c-0.383-0.594-0.697-1.049-0.946-1.365c-0.247-0.315-0.47-0.535-0.666-0.662c-0.196-0.126-0.395-0.214-0.598-0.264
			c-0.149-0.032-0.392-0.047-0.729-0.047h-1.519v4.397L89.156,82.869L89.156,82.869z M90.466,77.336h2.817
			c0.599,0,1.067-0.062,1.406-0.185c0.337-0.125,0.594-0.322,0.77-0.594c0.176-0.272,0.264-0.568,0.264-0.888
			c0-0.467-0.17-0.854-0.509-1.155c-0.34-0.301-0.877-0.452-1.611-0.452h-3.134v3.275H90.466z"/>
		<polygon points="99.112,82.869 99.112,72.966 100.457,72.966 105.659,80.741 105.659,72.966 106.914,72.966 106.914,82.869 
			105.57,82.869 100.369,75.087 100.369,82.869 		"/>
		<path d="M108.718,78.045c0-1.643,0.441-2.931,1.323-3.86c0.883-0.93,2.022-1.395,3.418-1.395c0.914,0,1.738,0.218,2.472,0.655
			c0.733,0.437,1.294,1.047,1.679,1.827c0.385,0.782,0.578,1.667,0.578,2.658c0,1.005-0.203,1.903-0.609,2.694
			c-0.405,0.793-0.98,1.392-1.723,1.801c-0.742,0.407-1.545,0.611-2.405,0.611c-0.932,0-1.766-0.225-2.5-0.675
			c-0.733-0.45-1.29-1.064-1.668-1.844C108.907,79.738,108.718,78.915,108.718,78.045 M110.069,78.065
			c0,1.194,0.321,2.134,0.962,2.821c0.641,0.686,1.446,1.03,2.414,1.03c0.986,0,1.798-0.346,2.435-1.04
			c0.638-0.694,0.956-1.677,0.956-2.951c0-0.806-0.137-1.51-0.408-2.111c-0.272-0.601-0.671-1.067-1.196-1.399
			c-0.524-0.331-1.113-0.497-1.767-0.497c-0.928,0-1.725,0.319-2.395,0.956C110.403,75.511,110.069,76.575,110.069,78.065"/>
		<path d="M123.72,82.869v-9.903h3.411c0.77,0,1.357,0.047,1.764,0.141c0.567,0.131,1.051,0.368,1.453,0.71
			c0.522,0.441,0.913,1.005,1.172,1.692c0.258,0.686,0.389,1.471,0.389,2.354c0,0.752-0.088,1.418-0.264,2
			c-0.176,0.58-0.402,1.062-0.675,1.443c-0.275,0.381-0.576,0.681-0.902,0.899c-0.327,0.219-0.721,0.384-1.181,0.497
			c-0.462,0.113-0.992,0.169-1.591,0.169h-3.574L123.72,82.869L123.72,82.869z M125.032,81.7h2.114c0.653,0,1.166-0.061,1.536-0.183
			c0.372-0.123,0.667-0.292,0.888-0.513c0.311-0.311,0.553-0.728,0.726-1.253c0.173-0.524,0.259-1.16,0.259-1.908
			c0-1.036-0.17-1.831-0.509-2.388c-0.34-0.556-0.754-0.929-1.24-1.118c-0.351-0.135-0.916-0.203-1.695-0.203h-2.08L125.032,81.7
			L125.032,81.7z"/>
		<path d="M133.312,78.045c0-1.643,0.441-2.931,1.323-3.86c0.882-0.93,2.022-1.395,3.418-1.395c0.914,0,1.738,0.218,2.472,0.655
			c0.733,0.437,1.294,1.047,1.679,1.827c0.385,0.782,0.578,1.667,0.578,2.658c0,1.005-0.203,1.903-0.609,2.694
			c-0.405,0.793-0.98,1.392-1.723,1.801c-0.742,0.407-1.545,0.611-2.405,0.611c-0.932,0-1.766-0.225-2.5-0.675
			c-0.733-0.45-1.29-1.064-1.668-1.844C133.502,79.738,133.312,78.915,133.312,78.045 M134.663,78.065
			c0,1.194,0.321,2.134,0.962,2.821c0.641,0.686,1.446,1.03,2.414,1.03c0.986,0,1.798-0.346,2.436-1.04
			c0.637-0.694,0.956-1.677,0.956-2.951c0-0.806-0.137-1.51-0.408-2.111c-0.273-0.601-0.671-1.067-1.195-1.399
			c-0.524-0.331-1.113-0.497-1.767-0.497c-0.928,0-1.725,0.319-2.395,0.956C134.998,75.511,134.663,76.575,134.663,78.065"/>
		<polygon points="48.089,100.161 48.089,88.401 51.643,88.401 53.775,96.423 55.887,88.401 59.448,88.401 59.448,100.161 
			57.241,100.161 57.241,90.904 54.907,100.161 52.622,100.161 50.295,90.904 50.295,100.161 		"/>
		<path d="M72.41,100.161h-2.583L68.8,97.49h-4.701l-0.971,2.671H60.61l4.58-11.759H67.7L72.41,100.161z M68.038,95.508
			l-1.621-4.364l-1.588,4.364H68.038z"/>
		<path d="M73.678,100.161v-11.76h4.997c1.256,0,2.17,0.106,2.739,0.316c0.569,0.211,1.025,0.587,1.368,1.126
			c0.343,0.541,0.513,1.158,0.513,1.853c0,0.882-0.258,1.611-0.778,2.185c-0.519,0.576-1.294,0.937-2.325,1.087
			c0.513,0.3,0.937,0.628,1.271,0.987c0.334,0.359,0.785,0.994,1.352,1.909l1.436,2.294h-2.84l-1.716-2.559
			c-0.61-0.914-1.027-1.49-1.251-1.729c-0.224-0.239-0.462-0.402-0.714-0.489c-0.252-0.089-0.65-0.132-1.195-0.132h-0.48v4.909
			h-2.377C73.678,100.158,73.678,100.161,73.678,100.161z M76.053,93.375h1.757c1.139,0,1.85-0.048,2.134-0.145
			c0.284-0.096,0.506-0.262,0.667-0.497c0.16-0.235,0.241-0.53,0.241-0.882c0-0.395-0.106-0.715-0.316-0.959
			c-0.211-0.243-0.509-0.397-0.894-0.462c-0.193-0.026-0.77-0.039-1.733-0.039h-1.853L76.053,93.375L76.053,93.375z"/>
		<path d="M96.138,100.161h-2.583l-1.027-2.671h-4.701l-0.971,2.671h-2.518l4.58-11.759h2.511L96.138,100.161z M91.767,95.508
			l-1.621-4.364l-1.588,4.364H91.767z"/>
		<polygon points="97.421,100.161 97.421,88.401 99.732,88.401 104.544,96.254 104.544,88.401 106.75,88.401 106.75,100.161 
			104.368,100.161 99.627,92.492 99.627,100.161 		"/>
		<polygon points="109.268,100.161 109.268,88.401 111.643,88.401 111.643,93.03 116.295,93.03 116.295,88.401 118.67,88.401 
			118.67,100.161 116.295,100.161 116.295,95.02 111.643,95.02 111.643,100.161 		"/>
		<path d="M131.728,100.161h-2.583l-1.027-2.671h-4.701l-0.971,2.671h-2.518l4.58-11.759h2.511L131.728,100.161z M123.9,87.752
			h-1.027c-0.005-0.124-0.008-0.219-0.008-0.289c0-0.562,0.137-0.993,0.408-1.296c0.273-0.302,0.623-0.453,1.051-0.453
			c0.187,0,0.36,0.021,0.521,0.06c0.16,0.039,0.453,0.154,0.878,0.345c0.425,0.19,0.758,0.286,0.998,0.286
			c0.171,0,0.314-0.053,0.43-0.16c0.115-0.107,0.188-0.286,0.22-0.538h1.043c-0.005,0.722-0.14,1.238-0.404,1.548
			c-0.265,0.311-0.606,0.465-1.022,0.465c-0.183,0-0.36-0.019-0.536-0.056c-0.124-0.033-0.431-0.141-0.923-0.329
			c-0.492-0.187-0.851-0.281-1.075-0.281c-0.171,0-0.304,0.051-0.402,0.157C123.956,87.314,123.905,87.496,123.9,87.752
			 M127.357,95.508l-1.621-4.364l-1.588,4.364H127.357z"/>
		<path d="M132.506,94.353c0-1.198,0.18-2.204,0.536-3.016c0.268-0.599,0.633-1.136,1.095-1.612
			c0.462-0.476,0.969-0.829,1.519-1.059c0.732-0.31,1.578-0.465,2.534-0.465c1.733,0,3.119,0.536,4.159,1.612
			c1.04,1.075,1.56,2.57,1.56,4.484c0,1.899-0.517,3.384-1.548,4.457c-1.032,1.072-2.413,1.607-4.139,1.607
			c-1.749,0-3.139-0.534-4.172-1.6C133.022,97.694,132.506,96.225,132.506,94.353 M134.954,94.273c0,1.331,0.308,2.341,0.923,3.028
			c0.615,0.687,1.396,1.031,2.342,1.031c0.946,0,1.724-0.342,2.33-1.022c0.608-0.682,0.911-1.704,0.911-3.068
			c0-1.348-0.296-2.352-0.887-3.016c-0.591-0.663-1.376-0.994-2.354-0.994c-0.979,0-1.768,0.335-2.367,1.006
			C135.253,91.909,134.954,92.92,134.954,94.273"/>
	</g>
</g>
</svg>
